<?xml version="1.0" encoding="UTF-8" standalone="no"?>
<!-- Created with Inkscape (http://www.inkscape.org/) -->

<svg xmlns:dc="http://purl.org/dc/elements/1.1/" xmlns:cc="http://creativecommons.org/ns#" xmlns:rdf="http://www.w3.org/1999/02/22-rdf-syntax-ns#" xmlns:svg="http://www.w3.org/2000/svg" xmlns="http://www.w3.org/2000/svg" xmlns:sodipodi="http://sodipodi.sourceforge.net/DTD/sodipodi-0.dtd" xmlns:inkscape="http://www.inkscape.org/namespaces/inkscape" width="200" height="200" viewBox="0 0 200 200" id="svg4413" version="1.1" inkscape:version="0.91 r13725" sodipodi:docname="icon-1.svg">
    <defs id="defs4415" />
    <sodipodi:namedview id="base" pagecolor="#ffffff" bordercolor="#666666" borderopacity="1.0" inkscape:pageopacity="0.0" inkscape:pageshadow="2" inkscape:zoom="2.8" inkscape:cx="166.22695" inkscape:cy="93.602585" inkscape:document-units="px" inkscape:current-layer="layer1" showgrid="false" fit-margin-top="0" fit-margin-left="0" fit-margin-right="0" fit-margin-bottom="0" units="px" inkscape:window-width="1920" inkscape:window-height="1047" inkscape:window-x="1920" inkscape:window-y="0" inkscape:window-maximized="1" />
    <metadata id="metadata4418">
        <rdf:RDF>
            <cc:Work rdf:about="">
                <dc:format>image/svg+xml</dc:format>
                <dc:type rdf:resource="http://purl.org/dc/dcmitype/StillImage" />
                <dc:title></dc:title>
            </cc:Work>
        </rdf:RDF>
    </metadata>
    <g inkscape:label="Ebene 1" inkscape:groupmode="layer" id="layer1" transform="translate(1576.3945,166.94265)">
        <g id="g5318" transform="matrix(2.7999278,0,0,2.7999278,-1567.5321,-157.94031)">
            <g id="g5266">
                <path id="path5268" d="m -0.2,4.7 0,55.6 65.5,0 0,-55.6 -65.5,0 z m 63.9,1.5 0,6.2 -62.4,0 0,-6.2 62.4,0 z m -62.4,52.6 0,-44.9 62.5,0 0,44.9 -62.5,0 z" inkscape:connector-curvature="0" />
                <rect id="rect5270" height="1.5" width="1.5" y="8.6000004" x="56.900002" />
                <rect id="rect5272" height="1.5" width="1.5" y="8.6000004" x="53.099998" />
                <rect id="rect5274" height="1.5" width="1.5" y="8.6000004" x="49.299999" />
                <rect id="rect5276" height="1.5" width="38.5" y="8.6000004" x="6.0999999" />
                <polygon id="polygon5278" points="57.7,30.2 54.5,33.3 55.5,34.4 59.9,30.2 55.5,26.1 54.5,27.2 " />
                <polygon id="polygon5280" points="5.1,30.2 9.5,34.4 10.5,33.3 7.3,30.2 10.5,27.2 9.5,26.1 " />
                <path id="path5282" d="m 50.6,18.6 -35.8,0 0,23.2 35.8,0 0,-23.2 z m -1.5,1.5 0,16.9 -7.8,-7.5 -3.6,3.5 -5.1,-5.8 -9,8.7 -3.6,-3.5 -3.6,3.4 0,-15.7 32.7,0 z m -32.8,20.2 0,-2.3 3.6,-3.4 3.6,3.5 9,-8.6 5.1,5.8 3.7,-3.6 7.8,7.5 0,1.2 -32.8,0 z" inkscape:connector-curvature="0" />
                <path id="path5284" d="m 25.7,26.7 c 0,-1.4 -1.1,-2.5 -2.5,-2.5 -1.4,0 -2.5,1.1 -2.5,2.5 0,1.4 1.1,2.5 2.5,2.5 1.4,0 2.5,-1.1 2.5,-2.5 z m -3.4,0 c 0,-0.5 0.4,-1 1,-1 0.5,0 1,0.4 1,1 0,0.5 -0.4,1 -1,1 -0.6,0 -1,-0.4 -1,-1 z" inkscape:connector-curvature="0" />
                <rect id="rect5286" height="1.4" width="1.5" y="22.1" x="22.5" />
                <rect id="rect5288" height="1.5" width="1.4" transform="matrix(0.7072,0.707,-0.707,0.7072,22.9396,-7.4644)" y="23.200001" x="19.799999" />
                <rect id="rect5290" height="1.5" width="1.4" y="26" x="18.6" />
                <rect id="rect5292" height="1.4" width="1.5" transform="matrix(-0.707,-0.7072,0.7072,-0.707,14.0897,64.8604)" y="28.799999" x="19.700001" />
                <rect id="rect5294" height="1.4" width="1.5" y="30" x="22.5" />
                <rect id="rect5296" height="1.5" width="1.4" transform="matrix(-0.7071,-0.7071,0.7071,-0.7071,23.5711,68.7855)" y="28.799999" x="25.299999" />
                <rect id="rect5298" height="1.5" width="1.4" y="26" x="26.5" />
                <rect id="rect5300" height="1.4" width="1.5" transform="matrix(0.7071,0.7071,-0.7071,0.7071,24.5681,-11.3879)" y="23.299999" x="25.299999" />
                <path id="path5302" d="M 49.5,48.5 C 44,46.9 39,46.1 34.9,46.1 30.5,46.1 28,47 26.9,47.6 26,46.5 25,46 25,46 c -0.8,-0.5 -1.5,-0.7 -2.3,-0.7 -1.9,0 -3.3,1.2 -4.3,2.2 -0.4,0.4 -1,0.6 -1.7,0.6 -0.6,0 -1.1,-0.2 -1.1,-0.2 l -1,-0.4 0,1.1 c 0,0.1 0,5 5.4,6.5 0.8,0.2 1.5,0.3 2.2,0.3 2.7,0 4.1,-1.6 4.8,-2.5 1.1,0.5 3.7,1.4 8.1,1.4 4.1,0 9,-0.8 14.4,-2.3 0.5,-0.2 1.3,-0.7 1.3,-1.8 0,-1.1 -0.9,-1.6 -1.3,-1.7 z m -0.4,2.2 c -5.3,1.5 -10,2.2 -14,2.2 -5.7,0 -7.9,-1.5 -8,-1.6 l -0.8,-0.6 -0.3,1 c 0,0.1 -1,2.3 -3.8,2.3 -0.6,0 -1.2,-0.1 -1.8,-0.3 -3,-0.8 -3.9,-2.9 -4.2,-4.1 0.2,0 0.3,0 0.5,0 1.1,0 2,-0.4 2.7,-1 1.2,-1.2 2.3,-1.7 3.3,-1.7 0.5,0 1,0.2 1.6,0.5 0,0 1,0.5 1.6,1.5 l 0.4,0.7 0.7,-0.5 c 0,0 2.2,-1.6 7.8,-1.6 4,0 8.8,0.8 14.2,2.4 0.2,0.1 0.2,0.2 0.2,0.4 0.1,0.3 -0.1,0.4 -0.1,0.4 z" inkscape:connector-curvature="0" />
                <rect id="rect5304" height="1.5" width="1.5" y="49.599998" x="37.099998" />
                <rect id="rect5306" height="1.5" width="1.5" y="49.599998" x="33.599998" />
            </g>
        </g>
    </g>
</svg>
